# Blender v2.80 (sub 60) OBJ File: ''
# www.blender.org
mtllib curveQuad.mtl
o Cube
v 0.000000 1.000000 -1.000000
v 0.000000 -1.000000 -1.000000
v 0.000000 1.000000 1.000000
v 0.000000 -1.000000 1.000000
v 0.000000 0.750000 -1.000000
v 0.000000 0.500000 -1.000000
v 0.000000 0.250000 -1.000000
v 0.000000 0.000000 -1.000000
v 0.000000 -0.250000 -1.000000
v 0.000000 -0.500000 -1.000000
v 0.000000 -0.750000 -1.000000
v 0.105812 0.750000 1.000000
v 0.228819 0.500000 1.000000
v 0.277589 0.250000 1.000000
v 0.292041 0.000000 1.000000
v 0.277589 -0.250000 1.000000
v 0.228819 -0.500000 1.000000
v 0.105812 -0.750000 1.000000
v 0.000000 1.000000 -0.750000
v 0.000000 1.000000 -0.500000
v 0.000000 1.000000 -0.250000
v 0.139386 1.000000 0.000000
v 0.166316 1.000000 0.250000
v 0.139386 1.000000 0.500000
v 0.000000 1.000000 0.750000
v 0.000000 -1.000000 0.750000
v 0.139386 -1.000000 0.500000
v 0.166316 -1.000000 0.250000
v 0.139386 -1.000000 0.000000
v 0.000000 -1.000000 -0.250000
v 0.000000 -1.000000 -0.500000
v 0.000000 -1.000000 -0.750000
v 0.000000 -0.750000 -0.750000
v 0.000000 -0.500000 -0.750000
v 0.139386 -0.250000 -0.750000
v 0.166316 0.000000 -0.750000
v 0.139386 0.250000 -0.750000
v 0.000000 0.500000 -0.750000
v 0.000000 0.750000 -0.750000
v 0.105812 -0.750000 -0.500000
v 0.228819 -0.500000 -0.500000
v 0.277589 -0.250000 -0.500000
v 0.292041 0.000000 -0.500000
v 0.277589 0.250000 -0.500000
v 0.228819 0.500000 -0.500000
v 0.105812 0.750000 -0.500000
v 0.228819 -0.750000 -0.250000
v 0.305811 -0.500000 -0.250000
v 0.343828 -0.250000 -0.250000
v 0.355598 0.000000 -0.250000
v 0.343828 0.250000 -0.250000
v 0.305811 0.500000 -0.250000
v 0.228819 0.750000 -0.250000
v 0.277589 -0.750000 -0.000000
v 0.343828 -0.500000 -0.000000
v 0.378041 -0.250000 0.000000
v 0.388777 0.000000 0.000000
v 0.378041 0.250000 0.000000
v 0.343828 0.500000 0.000000
v 0.277589 0.750000 0.000000
v 0.292041 -0.750000 0.250000
v 0.355598 -0.500000 0.250000
v 0.388777 -0.250000 0.250000
v 0.399224 0.000000 0.250000
v 0.388777 0.250000 0.250000
v 0.355598 0.500000 0.250000
v 0.292041 0.750000 0.250000
v 0.277589 -0.750000 0.500000
v 0.343828 -0.500000 0.500000
v 0.378041 -0.250000 0.500000
v 0.388777 0.000000 0.500000
v 0.378041 0.250000 0.500000
v 0.343828 0.500000 0.500000
v 0.277589 0.750000 0.500000
v 0.228819 -0.750000 0.750000
v 0.305811 -0.500000 0.750000
v 0.343828 -0.250000 0.750000
v 0.355598 0.000000 0.750000
v 0.343828 0.250000 0.750000
v 0.305811 0.500000 0.750000
v 0.228819 0.750000 0.750000
vt 0.125000 0.125000
vt 0.250000 0.125000
vt 0.250000 0.250000
vt 0.125000 0.250000
vt 0.375000 0.125000
vt 0.375000 0.250000
vt 0.500000 0.125000
vt 0.500000 0.250000
vt 0.625000 0.125000
vt 0.625000 0.250000
vt 0.750000 0.125000
vt 0.750000 0.250000
vt 0.875000 0.125000
vt 0.875000 0.250000
vt 0.250000 0.375000
vt 0.125000 0.375000
vt 0.375000 0.375000
vt 0.500000 0.375000
vt 0.625000 0.375000
vt 0.750000 0.375000
vt 0.875000 0.375000
vt 0.250000 0.500000
vt 0.125000 0.500000
vt 0.375000 0.500000
vt 0.500000 0.500000
vt 0.625000 0.500000
vt 0.750000 0.500000
vt 0.875000 0.500000
vt 0.250000 0.625000
vt 0.125000 0.625000
vt 0.375000 0.625000
vt 0.500000 0.625000
vt 0.625000 0.625000
vt 0.750000 0.625000
vt 0.875000 0.625000
vt 0.250000 0.750000
vt 0.125000 0.750000
vt 0.375000 0.750000
vt 0.500000 0.750000
vt 0.625000 0.750000
vt 0.750000 0.750000
vt 0.875000 0.750000
vt 0.250000 0.875000
vt 0.125000 0.875000
vt 0.375000 0.875000
vt 0.500000 0.875000
vt 0.625000 0.875000
vt 0.750000 0.875000
vt 0.875000 0.875000
vt 0.000000 0.000000
vt 0.125000 0.000000
vt 0.000000 0.125000
vt 0.250000 0.000000
vt 0.375000 0.000000
vt 0.500000 0.000000
vt 0.625000 0.000000
vt 0.750000 0.000000
vt 0.875000 0.000000
vt 1.000000 0.000000
vt 1.000000 0.125000
vt 1.000000 0.250000
vt 1.000000 0.375000
vt 1.000000 0.500000
vt 1.000000 0.625000
vt 1.000000 0.750000
vt 1.000000 0.875000
vt 1.000000 1.000000
vt 0.875000 1.000000
vt 0.750000 1.000000
vt 0.625000 1.000000
vt 0.500000 1.000000
vt 0.375000 1.000000
vt 0.250000 1.000000
vt 0.125000 1.000000
vt 0.000000 0.875000
vt 0.000000 1.000000
vt 0.000000 0.750000
vt 0.000000 0.625000
vt 0.000000 0.500000
vt 0.000000 0.375000
vt 0.000000 0.250000
vn 0.8142 -0.2003 -0.5449
vn 0.7714 -0.2903 -0.5663
vn 0.8820 -0.0730 -0.4656
vn 0.8820 0.0730 -0.4656
vn 0.7714 0.2903 -0.5663
vn 0.8142 0.2003 -0.5449
vn 0.8704 -0.3482 -0.3482
vn 0.9482 -0.1646 -0.2716
vn 0.9667 -0.0507 -0.2509
vn 0.9667 0.0507 -0.2509
vn 0.9482 0.1646 -0.2716
vn 0.8704 0.3482 -0.3482
vn 0.9482 -0.2716 -0.1646
vn 0.9798 -0.1415 -0.1415
vn 0.9901 -0.0446 -0.1334
vn 0.9901 0.0446 -0.1334
vn 0.9798 0.1415 -0.1415
vn 0.9482 0.2716 -0.1646
vn 0.9667 -0.2509 -0.0507
vn 0.9901 -0.1334 -0.0446
vn 0.9982 -0.0423 -0.0423
vn 0.9982 0.0423 -0.0423
vn 0.9901 0.1334 -0.0446
vn 0.9667 0.2509 -0.0507
vn 0.9667 -0.2509 0.0507
vn 0.9901 -0.1334 0.0446
vn 0.9982 -0.0423 0.0423
vn 0.9982 0.0423 0.0423
vn 0.9901 0.1334 0.0446
vn 0.9667 0.2509 0.0507
vn 0.9482 -0.2716 0.1646
vn 0.9798 -0.1415 0.1415
vn 0.9901 -0.0446 0.1334
vn 0.9901 0.0446 0.1334
vn 0.9798 0.1415 0.1415
vn 0.9482 0.2716 0.1646
vn 1.0000 0.0000 0.0000
vn 0.9303 -0.2593 -0.2593
vn 0.8523 -0.0459 -0.5211
vn 0.8523 0.0459 -0.5211
vn 0.9303 0.2593 -0.2593
vn 0.9580 0.2027 -0.2027
vn 0.8142 0.5449 -0.2003
vn 0.7714 0.5663 -0.2903
vn 0.8820 0.4656 -0.0730
vn 0.8820 0.4656 0.0730
vn 0.7714 0.5663 0.2903
vn 0.8142 0.5449 0.2003
vn 0.8704 0.3482 0.3482
vn 0.9482 0.1646 0.2716
vn 0.9667 0.0507 0.2509
vn 0.9667 -0.0507 0.2509
vn 0.9482 -0.1646 0.2716
vn 0.8704 -0.3482 0.3482
vn 0.8142 -0.5449 0.2003
vn 0.7714 -0.5663 0.2903
vn 0.8820 -0.4656 0.0730
vn 0.8820 -0.4656 -0.0730
vn 0.7714 -0.5663 -0.2903
vn 0.8142 -0.5449 -0.2003
vn 0.9580 -0.2027 -0.2027
usemtl Material
s off
f 33/1/1 34/2/1 41/3/1 40/4/1
f 34/2/2 35/5/2 42/6/2 41/3/2
f 35/5/3 36/7/3 43/8/3 42/6/3
f 36/7/4 37/9/4 44/10/4 43/8/4
f 37/9/5 38/11/5 45/12/5 44/10/5
f 38/11/6 39/13/6 46/14/6 45/12/6
f 40/4/7 41/3/7 48/15/7 47/16/7
f 41/3/8 42/6/8 49/17/8 48/15/8
f 42/6/9 43/8/9 50/18/9 49/17/9
f 43/8/10 44/10/10 51/19/10 50/18/10
f 44/10/11 45/12/11 52/20/11 51/19/11
f 45/12/12 46/14/12 53/21/12 52/20/12
f 47/16/13 48/15/13 55/22/13 54/23/13
f 48/15/14 49/17/14 56/24/14 55/22/14
f 49/17/15 50/18/15 57/25/15 56/24/15
f 50/18/16 51/19/16 58/26/16 57/25/16
f 51/19/17 52/20/17 59/27/17 58/26/17
f 52/20/18 53/21/18 60/28/18 59/27/18
f 54/23/19 55/22/19 62/29/19 61/30/19
f 55/22/20 56/24/20 63/31/20 62/29/20
f 56/24/21 57/25/21 64/32/21 63/31/21
f 57/25/22 58/26/22 65/33/22 64/32/22
f 58/26/23 59/27/23 66/34/23 65/33/23
f 59/27/24 60/28/24 67/35/24 66/34/24
f 61/30/25 62/29/25 69/36/25 68/37/25
f 62/29/26 63/31/26 70/38/26 69/36/26
f 63/31/27 64/32/27 71/39/27 70/38/27
f 64/32/28 65/33/28 72/40/28 71/39/28
f 65/33/29 66/34/29 73/41/29 72/40/29
f 66/34/30 67/35/30 74/42/30 73/41/30
f 68/37/31 69/36/31 76/43/31 75/44/31
f 69/36/32 70/38/32 77/45/32 76/43/32
f 70/38/33 71/39/33 78/46/33 77/45/33
f 71/39/34 72/40/34 79/47/34 78/46/34
f 72/40/35 73/41/35 80/48/35 79/47/35
f 73/41/36 74/42/36 81/49/36 80/48/36
f 2/50/37 11/51/37 33/1/37 32/52/37
f 11/51/37 10/53/37 34/2/37 33/1/37
f 10/53/38 9/54/38 35/5/38 34/2/38
f 9/54/39 8/55/39 36/7/39 35/5/39
f 8/55/40 7/56/40 37/9/40 36/7/40
f 7/56/41 6/57/41 38/11/41 37/9/41
f 6/57/37 5/58/37 39/13/37 38/11/37
f 5/58/37 1/59/37 19/60/37 39/13/37
f 39/13/42 19/60/42 20/61/42 46/14/42
f 46/14/43 20/61/43 21/62/43 53/21/43
f 53/21/44 21/62/44 22/63/44 60/28/44
f 60/28/45 22/63/45 23/64/45 67/35/45
f 67/35/46 23/64/46 24/65/46 74/42/46
f 74/42/47 24/65/47 25/66/47 81/49/47
f 81/49/48 25/66/48 3/67/48 12/68/48
f 80/48/49 81/49/49 12/68/49 13/69/49
f 79/47/50 80/48/50 13/69/50 14/70/50
f 78/46/51 79/47/51 14/70/51 15/71/51
f 77/45/52 78/46/52 15/71/52 16/72/52
f 76/43/53 77/45/53 16/72/53 17/73/53
f 75/44/54 76/43/54 17/73/54 18/74/54
f 26/75/55 75/44/55 18/74/55 4/76/55
f 27/77/56 68/37/56 75/44/56 26/75/56
f 28/78/57 61/30/57 68/37/57 27/77/57
f 29/79/58 54/23/58 61/30/58 28/78/58
f 30/80/59 47/16/59 54/23/59 29/79/59
f 31/81/60 40/4/60 47/16/60 30/80/60
f 32/52/61 33/1/61 40/4/61 31/81/61
